<?xml version="1.0" encoding="UTF-8"?>
<svg width="28px" height="28px" viewBox="0 0 28 28" version="1.1" xmlns="http://www.w3.org/2000/svg" xmlns:xlink="http://www.w3.org/1999/xlink">
    <!-- Generator: Sketch 59.1 (86144) - https://sketch.com -->
    <title>icon_language</title>
    <desc>Created with Sketch.</desc>
    <g id="页面1" stroke="none" stroke-width="1" fill="none" fill-rule="evenodd">
        <g id="ucode百科百答概览" transform="translate(-1212.000000, -15.000000)">
            <g id="tab">
                <g id="语言" transform="translate(1212.000000, 15.000000)">
                    <rect id="Rectangle-14" x="0" y="0" width="28" height="28"></rect>
                    <path d="M20.7875486,19.9119531 C22.212499,18.2741999 23,16.1987852 23,13.9983902 C23,11.5979873 22.0625574,9.33509125 20.362509,7.63483699 C18.6875314,5.95954802 16.4749701,5.03431627 14.1124892,5.00932902 C14.0749818,4.99689033 13.9000573,4.99689033 13.8625499,5.00932902 C11.5125055,5.03431627 9.31249062,5.97200868 7.63749101,7.63483699 C5.97503781,9.31010399 5.03750737,11.5229596 5.01252443,13.8858487 C5,13.9109238 5,14.0484526 5,14.0859665 C5.02498294,16.4613162 5.94996698,18.6867644 7.63749101,20.3620533 C9.33753947,22.0623076 11.6000447,23 14.0000549,23 C16.4000432,23 18.6625484,22.0623076 20.362509,20.3620533 C20.4874896,20.2369632 20.6000117,20.111983 20.7250583,19.9869808 L20.7500412,19.9619276 C20.7624777,19.9369403 20.7750241,19.9244137 20.7875486,19.9119531 Z M5.83753276,14.398516 L9.62498611,14.398516 C9.64996906,15.7237196 9.81252296,16.9614349 10.0750086,18.0740821 C8.83748515,18.4117287 8.03745976,18.8492804 7.63749101,19.1243161 C6.58752635,17.8115731 5.92500601,16.1738199 5.83753276,14.398516 Z M7.62496658,8.89753955 C8.02502322,9.17257519 8.82496072,9.61014886 10.0750086,9.9476856 C9.81252296,11.0354334 9.64996906,12.2606221 9.62498611,13.5608385 L5.83753276,13.5608385 C5.93753044,11.8105438 6.58752635,10.197756 7.62496658,8.89753955 Z M22.1625551,13.5733651 L18.3875383,13.5733651 C18.3624895,12.2730608 18.2000015,11.0478721 17.9375378,9.9602122 C19.1874978,9.62267545 19.9749768,9.18512376 20.3874919,8.91006614 C21.4250201,10.197756 22.075016,11.8105438 22.1625551,13.5733651 Z M17.56253,13.5733651 L14.4000237,13.5733651 L14.4000237,10.4227511 C15.4499883,10.3977639 16.3625358,10.2977709 17.124966,10.1352549 C17.3875395,11.1979495 17.5250226,12.3606371 17.56253,13.5733651 Z M14.4000237,9.59760029 L14.4000237,5.88452032 C15.1500173,6.09707682 15.8750279,6.87218724 16.4375506,8.10990254 C16.6124751,8.4975017 16.775051,8.91006614 16.9125341,9.34761784 C16.1999819,9.48514665 15.3750615,9.57263501 14.4000237,9.59760029 Z M13.5750154,5.89698098 L13.5750154,9.59760029 C12.612502,9.57263501 11.7874936,9.47262005 11.0875538,9.33509125 C11.2250589,8.89753955 11.3875249,8.48495313 11.5625373,8.09737595 C12.124994,6.89715252 12.8374583,6.10951551 13.5750154,5.89698098 Z M13.5750154,10.4227511 L13.5750154,13.5733651 L10.4499944,13.5733651 C10.4749774,12.3606371 10.6250069,11.1979495 10.875034,10.1476935 C11.6374642,10.2977709 12.5374872,10.3977639 13.5750154,10.4227511 Z M10.4499944,14.398516 L13.5875398,14.398516 L13.5875398,17.5990166 C12.5500117,17.6240917 11.6499886,17.7365454 10.8874706,17.8866008 C10.6250069,16.8113795 10.4749774,15.6361653 10.4499944,14.398516 Z M13.5750154,18.4241674 L13.5750154,22.112348 C12.8374583,21.8872649 12.124994,21.1121545 11.5625373,19.8994265 C11.3875249,19.5243539 11.2374954,19.1117895 11.0999904,18.6742378 C11.80004,18.5492356 12.6250264,18.4491547 13.5750154,18.4241674 Z M14.4000237,22.1248087 L14.4000237,18.4241674 C15.3625151,18.4491547 16.1999819,18.536709 16.9000096,18.6742378 C16.7625046,19.1117895 16.6124751,19.5243539 16.4375506,19.8994265 C15.8750279,21.1246152 15.1500173,21.9122522 14.4000237,22.1248087 Z M14.4000237,17.5990166 L14.4000237,14.398516 L17.5500056,14.398516 C17.5374811,15.6237047 17.3875395,16.8113795 17.124966,17.8740742 C16.3625358,17.7240847 15.4499883,17.6115431 14.4000237,17.5990166 Z M18.3875383,14.398516 L22.1625551,14.398516 C22.075016,16.1738199 21.4250201,17.8115731 20.3750334,19.1117895 C19.9625402,18.8367319 19.1750393,18.3991802 17.9249914,18.0616434 C18.2000015,16.9614349 18.3624895,15.7237196 18.3875383,14.398516 Z M19.8374937,8.2849452 C19.4624859,8.52246698 18.7875071,8.87255229 17.725018,9.16004859 C17.3374858,7.88481944 16.800012,6.84719998 16.1500161,6.10951551 C17.56253,6.49711467 18.8375608,7.25976442 19.8374937,8.2849452 Z M11.8625084,6.10951551 C11.2250589,6.83467339 10.6750387,7.88481944 10.2875284,9.14760991 C9.22501736,8.8600257 8.54995062,8.4975017 8.17496481,8.27239663 C9.17498557,7.25976442 10.43747,6.49711467 11.8625084,6.10951551 Z M8.18748924,19.7369104 C8.54995062,19.4993886 9.23747588,19.1493033 10.2875284,18.8617191 C10.6750387,20.1245096 11.2125125,21.162129 11.8499839,21.8872649 C10.4499944,21.4997537 9.18750999,20.7495426 8.18748924,19.7369104 Z M16.1500161,21.8872649 C16.7874875,21.162129 17.3250492,20.1245096 17.7124935,18.8617191 C18.7625461,19.1493033 19.4500494,19.4993886 19.8250352,19.7369104 C18.8250144,20.7495426 17.56253,21.4997537 16.1500161,21.8872649 Z" id="Fill-1" stroke="#627F95" stroke-width="0.525" fill="#627F95"></path>
                </g>
            </g>
        </g>
    </g>
</svg>