<?xml version="1.0" encoding="UTF-8"?>
<svg width="113px" height="52px" viewBox="0 0 113 52" version="1.1" xmlns="http://www.w3.org/2000/svg" xmlns:xlink="http://www.w3.org/1999/xlink">
    <!-- Generator: Sketch 59.1 (86144) - https://sketch.com -->
    <title>top_logo</title>
    <desc>Created with Sketch.</desc>
    <defs>
        <path d="M11.6198537,4.24736593 C11.805012,3.12297276 12.4463039,2.49846266 13.5042681,2.49846266 C14.1757874,2.49846266 14.7095995,2.83927834 15.2245221,3.62668933 C15.7394447,4.41410033 17.0576013,6.56172045 16.8402301,10.8391625 C16.6228589,15.1166046 13.1238484,19.0483507 8.53945926,19.0483507 C3.95507014,19.0483507 0.242434341,15.8780404 0.0186986376,10.8391625 C-0.205037066,5.80028472 2.26843611,-0.163358556 5.30014389,0.0772868665 C8.50259446,0.331485201 7.34817268,4.34200283 7.10319346,5.92508264 C6.85821425,7.50816245 8.08643467,9.03201694 9.86753046,8.45143825 C11.6486262,7.87085956 11.4346955,5.3717591 11.6198537,4.24736593 Z" id="path-1"></path>
        <path d="M1.89980702,0.0276555927 L2.36877196,0.0276555927 C3.35881419,0.0276555927 4.16140199,0.830243395 4.16140199,1.82028562 L4.16140199,2.52806747 C4.16140199,3.5181097 3.35881419,4.3206975 2.36877196,4.3206975 L1.89980702,4.3206975 C0.909764796,4.3206975 0.107176994,3.5181097 0.107176994,2.52806747 L0.107176994,1.82028562 C0.107176994,0.830243395 0.909764796,0.0276555927 1.89980702,0.0276555927 Z" id="path-3"></path>
    </defs>
    <g id="页面1" stroke="none" stroke-width="1" fill="none" fill-rule="evenodd">
        <g id="ucode百科百答概览" transform="translate(-20.000000, 0.000000)">
            <g id="tab">
                <g id="矩形-+-矩形复制蒙版">
                    <g id="编组-65" transform="translate(20.000000, 0.000000)">
                        <rect id="矩形" x="0" y="4" width="112" height="47.0204082"></rect>
                        <path d="M-5.82645043e-13,2.96378878 L47.1578947,2.96378878 L47.1578947,27.4414608 C47.1578947,40.4637538 36.6012404,51.0204082 23.5789474,51.0204082 C10.5566543,51.0204082 -5.77497559e-13,40.4637538 -5.82645043e-13,27.4414608 L-5.82645043e-13,2.96378878 L-5.82645043e-13,2.96378878 Z" id="矩形" fill="#5E69E9"></path>
                        <g id="编组复制" transform="translate(3.964912, 6.897959)">
                            <g id="编组-9">
                                <g id="编组-5" transform="translate(19.389015, 25.671098) rotate(2.000000) translate(-19.389015, -25.671098) translate(0.889015, 7.671098)">
                                    <g id="Group-48">
                                        <g id="Group-45" transform="translate(0.000000, 0.131701)">
                                            <g id="Group-34" transform="translate(2.641715, 0.230232)">
                                                <g id="Group-28-Copy-2" transform="translate(16.016968, 15.871665) rotate(8.000000) translate(-16.016968, -15.871665) translate(2.016968, 1.871665)">
                                                    <path d="M13.8947685,-6.65689726e-13 C21.5686373,-6.65689726e-13 27.789537,6.15226443 27.789537,13.7414672 C27.789537,21.33067 21.5686373,27.4829344 13.8947685,27.4829344 C6.22089976,27.4829344 0,21.33067 0,13.7414672 C0,10.7023805 0.997578509,7.89371999 2.6865598,5.61828349 L5.40128954,6.34820587 C5.48145766,6.36977599 5.5639328,6.32227292 5.58550291,6.2421048 C5.59237807,6.21655241 5.5923863,6.18963794 5.58552679,6.16408135 L4.82587453,3.33021022 C7.25967756,1.254857 10.4290444,-6.65689726e-13 13.8947685,-6.65689726e-13 Z" id="Combined-Shape" fill="#FFA900"></path>
                                                    <g id="Combined-Shape" transform="translate(5.393496, 4.533891)">
                                                        <mask id="mask-2" fill="white">
                                                            <use xlink:href="#path-1"></use>
                                                        </mask>
                                                        <use id="Mask" fill="#FFE32A" xlink:href="#path-1"></use>
                                                    </g>
                                                    <g id="Group-27" transform="translate(8.953905, 15.690158)">
                                                        <path d="M4.00495507,0 L5.77194223,0 C7.76041192,7.88132537e-17 9.3723851,1.61197318 9.3723851,3.60044287 C9.3723851,5.58891256 7.76041192,7.20088574 5.77194223,7.20088574 L4.00495507,7.20088574 C2.01648538,7.20088574 0.4045122,5.58891256 0.4045122,3.60044287 C0.4045122,1.61197318 2.01648538,3.65275956e-16 4.00495507,0 Z" id="Rectangle-16" fill="#FFFFFF" fill-rule="nonzero"></path>
                                                        <line x1="4.8772041" y1="2.66699472" x2="4.8772041" y2="4.20290677" id="Path-57" stroke="#101010" stroke-width="0.653824561" fill-rule="nonzero"></line>
                                                        <path d="M3.2384742,2.0545742 C3.28666892,1.66275613 3.83233535,1.4668471 4.87547351,1.4668471 C5.91861167,1.4668471 6.4642781,1.66275613 6.51247282,2.0545742 C6.52364066,2.29589887 6.31960348,2.55597635 5.9003613,2.83480665 C5.48111911,3.11363696 5.13708021,3.26756144 4.86824459,3.29658009 C4.57981445,3.25360067 4.22948833,3.09967619 3.81726621,2.83480665 C3.4050441,2.56993711 3.21211343,2.30985963 3.2384742,2.0545742 Z" id="Path-15" fill="#101010"></path>
                                                        <path d="M2.83169562,3.86822874 C3.11916993,4.18701732 3.4298914,4.37506303 3.76386001,4.43236588 C4.09782862,4.48966873 4.49024616,4.41453261 4.94111261,4.20695752 C5.19365685,4.46597671 5.49551745,4.6270855 5.84669441,4.69028392 C6.19787136,4.75348234 6.61773157,4.64766616 7.10627502,4.37283539" id="Path-10" stroke="#101010" stroke-width="0.653824561" stroke-linecap="round" transform="translate(4.968985, 4.288118) rotate(-7.000000) translate(-4.968985, -4.288118) "></path>
                                                    </g>
                                                    <g id="Group-41" transform="translate(7.451766, 12.934924)" fill="#101010">
                                                        <g id="Group-43" transform="translate(7.379205, 2.335093) rotate(2.000000) translate(-7.379205, -2.335093) translate(0.114487, 0.359583)">
                                                            <g id="Group-35" transform="translate(6.788178, 1.880453) rotate(-3.000000) translate(-6.788178, -1.880453) translate(0.183889, 0.563446)">
                                                                <path d="M2.91715314,0.202472619 C3.05466166,0.202472619 3.16613435,0.314047126 3.16613435,0.451681256 L3.16335992,0.432472619 L3.16613435,0.433125243 L3.16613435,0.536115408 C3.16613435,1.36116653 2.49729826,2.03000262 1.67224713,2.03000262 C0.847196009,2.03000262 0.178359922,1.36116653 0.178359922,0.536115408 L0.178359922,0.433125243 C0.189035406,0.303673986 0.296380628,0.202472619 0.427341124,0.202472619 C0.564849645,0.202472619 0.676322326,0.314047126 0.676322326,0.451681256 L0.673359922,0.432472619 L0.675359922,0.432472619 L0.676322326,0.535660539 C0.676322326,1.04640647 1.06078933,1.46735533 1.55610126,1.52488503 L1.67224713,1.53158535 C2.22228122,1.53158535 2.66817194,1.08569462 2.66817194,0.535660539 L2.66817194,0.535660539 L2.66735992,0.432472619 C2.67735847,0.32295375 2.75618101,0.233447963 2.86006404,0.209054397 Z" id="Combined-Shape-Copy" transform="translate(1.672247, 1.116238) scale(1, -1) rotate(6.000000) translate(-1.672247, -1.116238) "></path>
                                                                <path d="M11.9605872,0.350494561 C12.0980957,0.350494561 12.2095684,0.462069068 12.2095684,0.599703198 L12.2067939,0.580494561 L12.2095684,0.581147185 L12.2095684,0.68413735 C12.2095684,1.50918847 11.5407323,2.17802456 10.7156812,2.17802456 C9.89063003,2.17802456 9.22179394,1.50918847 9.22179394,0.68413735 L9.22179394,0.581147185 C9.23246942,0.451695928 9.33981465,0.350494561 9.47077514,0.350494561 C9.60828366,0.350494561 9.71975634,0.462069068 9.71975634,0.599703198 L9.71679394,0.580494561 L9.71879394,0.580494561 L9.71975634,0.683682481 C9.71975634,1.19442842 10.1042233,1.61537727 10.5995353,1.67290697 L10.7156812,1.67960729 C11.2657152,1.67960729 11.711606,1.23371656 11.711606,0.683682481 L11.711606,0.683682481 L11.7107939,0.580494561 C11.7207925,0.470975692 11.799615,0.381469905 11.9034981,0.357076339 Z" id="Combined-Shape-Copy-9" transform="translate(10.715681, 1.264260) scale(1, -1) rotate(-3.000000) translate(-10.715681, -1.264260) "></path>
                                                            </g>
                                                        </g>
                                                    </g>
                                                </g>
                                            </g>
                                            <g id="手臂" transform="translate(0.000000, 15.244109)">
                                                <path d="M12.2113534,15.7682378 C8.06374683,14.0194267 4.9552717,11.9677176 2.88592801,9.61311049 C1.74540144,8.31535992 0.887469211,6.89721227 0.312131319,5.35866756 C-0.451267631,3.31717002 0.584818541,1.0433442 2.62631022,0.27992958 C2.66048578,0.267149648 2.69483694,0.254844287 2.72935378,0.243017046 C4.22621229,-0.26988353 5.85544393,0.527771976 6.36834451,2.02463048 C6.40635887,2.13557232 6.43752555,2.24874358 6.46168563,2.36350191 C6.97327364,4.7952896 7.80897737,6.87013662 8.96879683,8.58804297 C10.6135865,11.0242796 12.4648627,12.7016354 14.5226254,13.6201104 L12.2113534,15.7682378 Z" id="Mask" fill="#FFE32A"></path>
                                                <ellipse id="Oval-39" fill="#FFFFFF" cx="3.81007653" cy="4.35983683" rx="1.77212862" ry="1.72089742"></ellipse>
                                                <ellipse id="Oval-40" fill="#FFFFFF" cx="1.94934148" cy="2.20871506" rx="1" ry="1"></ellipse>
                                                <ellipse id="Oval-40-Copy-2" fill="#FFFFFF" cx="3.7214701" cy="1.43431122" rx="1" ry="1"></ellipse>
                                                <ellipse id="Oval-40-Copy" fill="#FFFFFF" cx="1.1518836" cy="3.84356761" rx="1" ry="1"></ellipse>
                                            </g>
                                            <g id="手臂-copy" transform="translate(28.557295, 23.333183) scale(-1, 1) rotate(-4.000000) translate(-28.557295, -23.333183) translate(20.915969, 15.251551)">
                                                <path d="M12.4646771,16.1626723 C8.09705615,14.1517766 4.89182221,11.968908 2.84897532,9.61406671 C1.70989468,8.30101963 0.856348412,6.86473279 0.288336511,5.3052062 C-0.455128181,3.26395826 0.596932904,1.0065026 2.6381808,0.263037821 C2.65687168,0.256230216 2.67561393,0.249564491 2.69440593,0.243041219 C4.16231111,-0.266513051 5.76535873,0.510383867 6.274913,1.97828905 C6.3151207,2.0941179 6.34771377,2.21245122 6.37248872,2.33253112 C6.87693785,4.77802089 7.70409374,6.86347626 8.8539564,8.58889722 C10.4776855,11.0253762 12.3052571,12.7028989 14.3366713,13.6214652 L12.4646771,16.1626723 Z" id="Mask" fill="#FFE32A"></path>
                                                <ellipse id="Oval-39" fill="#FFFFFF" cx="3.76129062" cy="4.36027051" rx="1.7494375" ry="1.7210686"></ellipse>
                                                <ellipse id="Oval-40" fill="#FFFFFF" cx="1.92438125" cy="2.20893476" rx="1" ry="1"></ellipse>
                                                <ellipse id="Oval-40-Copy-2" fill="#FFFFFF" cx="3.67381875" cy="1.43445389" rx="1" ry="1"></ellipse>
                                                <ellipse id="Oval-40-Copy" fill="#FFFFFF" cx="1.13713437" cy="3.84394993" rx="1" ry="1"></ellipse>
                                            </g>
                                        </g>
                                    </g>
                                    <g id="蝴蝶结" transform="translate(16.816697, 30.429882) rotate(7.000000) translate(-16.816697, -30.429882) translate(8.891551, 26.478861)">
                                        <path d="M8.2443351,1.79776566 C8.99901915,1.02373229 9.94635679,0.479512819 11.086348,0.165107238 C12.7963348,-0.306501135 15.0449706,0.0920796243 15.0449706,3.22071104 C15.0449706,6.34934246 13.015556,6.61934648 11.5767436,6.36804513 C10.6175354,6.2005109 9.56259126,5.88164291 8.41191135,5.41144117 L8.2443351,1.79776566 Z" id="Path-31" fill="#FC5B2A"></path>
                                        <path d="M0,1.79776566 C0.75468405,1.02373229 1.70202168,0.479512819 2.8420129,0.165107238 C4.55199972,-0.306501135 6.80063547,0.0920796243 6.80063547,3.22071104 C6.80063547,6.34934246 4.77122089,6.61934648 3.3324085,6.36804513 C2.37320025,6.2005109 1.31825616,5.88164291 0.167576242,5.41144117 L0,1.79776566 Z" id="Path-31" fill="#FC5B2A" transform="translate(3.400318, 3.219781) scale(-1, 1) translate(-3.400318, -3.219781) "></path>
                                        <g id="Rectangle-7" transform="translate(5.257414, 1.361270)">
                                            <mask id="mask-4" fill="white">
                                                <use xlink:href="#path-3"></use>
                                            </mask>
                                            <use id="Mask" fill="#E53600" xlink:href="#path-3"></use>
                                            <path d="M1.66440041,-0.247503587 L2.01649772,-0.247503587 C3.00653995,-0.247503587 3.80912775,0.555084215 3.80912775,1.54512644 L3.80912775,2.1291565 C3.80912775,3.11919873 3.00653995,3.92178653 2.01649772,3.92178653 L1.66440041,3.92178653 C0.674358184,3.92178653 -0.128229618,3.11919873 -0.128229618,2.1291565 L-0.128229618,1.54512644 C-0.128229618,0.555084215 0.674358184,-0.247503587 1.66440041,-0.247503587 Z" fill="#E53600" mask="url(#mask-4)"></path>
                                        </g>
                                    </g>
                                </g>
                                <g id="编组-11" transform="translate(25.669443, 9.956363) scale(-1, 1) rotate(-2.000000) translate(-25.669443, -9.956363) translate(12.669443, 0.456363)">
                                    <polygon id="路径" fill="#121D47" points="8.4053389 4.64521679 8.4053389 14.0040431 23.3290191 10.4608696 19.439386 2.10721088"></polygon>
                                    <polygon id="路径-4" fill="#FFFE47" transform="translate(3.060367, 10.879073) rotate(7.000000) translate(-3.060367, -10.879073) " points="2.57150226 5.84535447 2.03206454 15.9663573 4.08867008 14.96307 3.08005223 5.7917881"></polygon>
                                    <polygon id="矩形" fill="#121D47" transform="translate(14.145185, 3.097476) rotate(-13.000000) translate(-14.145185, -3.097476) " points="2.7872316 2.69505686 25.5026323 2.70957471 25.5031388 3.49989571 2.78773804 3.48537786"></polygon>
                                </g>
                            </g>
                        </g>
                        <g id="Group-13-Copy" transform="translate(56.000000, 22.000000)">
                            <path d="M7.71323575,7.27681766 C8.35222112,7.27681766 8.87022111,7.8015011 8.87022111,8.44873093 L8.87022111,8.44873093 L8.87022111,12.9982888 C8.87022111,15.4477327 6.88455448,17.4333994 4.43511055,17.4333994 C1.98566663,17.4333994 2.99970366e-16,15.4477327 0,12.9982888 L0,8.44873093 L0.00678903259,8.32103807 C0.0696043782,7.73387524 0.560599016,7.27681766 1.15698536,7.27681766 C1.79597073,7.27681766 2.31397072,7.8015011 2.31397072,8.44873093 L2.313,8.44781766 L2.31397072,13.0362806 C2.31397072,14.1568202 3.18285288,15.0744214 4.28362741,15.1520946 L4.43511055,15.1574204 C5.60658373,15.1574204 6.55625038,14.2077538 6.55625038,13.0362806 L6.55625038,13.0362806 L6.556,8.44781766 L6.56303942,8.32103807 C6.62136795,7.77581544 7.0488919,7.3427754 7.58716944,7.28369429 Z" id="Combined-Shape-Copy" fill="#FF9309"></path>
                            <path d="M27.9604796,6.36807088 C31.0489089,6.36807088 33.5525755,8.90404086 33.5525755,12.0323184 C33.5525755,15.1605959 31.0489089,17.6965659 27.9604796,17.6965659 C24.8720503,17.6965659 22.3683837,15.1605959 22.3683837,12.0323184 C22.3683837,8.90404086 24.8720503,6.36807088 27.9604796,6.36807088 Z M27.9604796,8.71189742 C26.150021,8.71189742 24.6823544,10.1985005 24.6823544,12.0323184 C24.6823544,13.8661362 26.150021,15.3527393 27.9604796,15.3527393 C29.7709381,15.3527393 31.2386048,13.8661362 31.2386048,12.0323184 C31.2386048,10.1985005 29.7709381,8.71189742 27.9604796,8.71189742 Z" id="Combined-Shape-Copy-2" fill="#31BFFF"></path>
                            <path d="M14.6922661,3.36724734 C16.5779287,2.63556312 18.5803811,2.75701801 20.284686,3.54435717 C20.7336576,3.70495009 21.0548985,4.13864568 21.0548985,4.64833917 C21.0548985,5.295569 20.5368985,5.82025244 19.8979131,5.82025244 C19.7098344,5.82025244 19.5322374,5.77479606 19.375246,5.69413795 C18.2050122,5.14286698 16.8232784,5.05094442 15.523187,5.55541237 C12.9878858,6.53924315 11.7231372,9.41856602 12.6982725,11.9866026 C13.6734702,14.5546154 16.5192761,15.8388831 19.0546009,14.8551138 C20.0808501,14.4568749 20.8989192,13.7480595 21.4445185,12.8750297 C21.6408176,12.5149265 22.0195011,12.2721366 22.4541689,12.2721366 C23.0931543,12.2721366 23.6111543,12.7968201 23.6111543,13.4440499 C23.6111543,13.6841444 23.5398728,13.9073754 23.4175761,14.093215 C22.6198225,15.3960763 21.4085698,16.4522557 19.8855218,17.0432788 C16.157103,18.4899985 11.9720943,16.6013694 10.5379801,12.8248801 C9.10395753,9.04835564 10.963882,4.81405731 14.6922661,3.36724734 Z" id="Combined-Shape-Copy-22" fill="#FF5555" transform="translate(16.829256, 10.205263) rotate(21.000000) translate(-16.829256, -10.205263) "></path>
                            <path d="M44.1582746,3.04764993 C44.79726,3.04764993 45.31526,3.56564992 45.31526,4.2046353 L45.31526,11.5481074 C45.31526,11.5994357 45.3119176,11.6499834 45.3054385,11.6995446 C45.3120472,11.8089529 45.31526,11.9202556 45.31526,12.0323184 C45.31526,15.1605959 42.8115934,17.6965659 39.7231641,17.6965659 C36.6347348,17.6965659 34.1310682,15.1605959 34.1310682,12.0323184 C34.1310682,8.90404086 36.6347348,6.36807088 39.7231641,6.36807088 C40.947993,6.36807088 42.08085,6.76693008 43.0020427,7.4434118 L43.0012893,4.2046353 C43.0012893,3.56564992 43.5192893,3.04764993 44.1582746,3.04764993 Z M39.7231641,8.71189742 C37.9127055,8.71189742 36.4450389,10.1985005 36.4450389,12.0323184 C36.4450389,13.8661362 37.9127055,15.3527393 39.7231641,15.3527393 C41.5336226,15.3527393 43.0012893,13.8661362 43.0012893,12.0323184 C43.0012893,10.1985005 41.5336226,8.71189742 39.7231641,8.71189742 Z" id="形状结合" fill="#02CD94"></path>
                            <path d="M51.4858486,6.36807088 C52.2170195,6.36807088 52.9154154,6.51020767 53.5555741,6.76869049 C53.7904417,6.80029329 54.0020207,6.905588 54.1673857,7.06074223 C55.4399858,7.76646526 56.4116664,8.95837095 56.8391679,10.3896549 L56.848704,10.4201657 C57.0616054,11.0114694 56.7574441,11.6637702 56.167635,11.8807779 L49.2540318,14.4244912 L49.2229347,14.4347047 C49.8113064,15.003478 50.6083099,15.3527393 51.4858486,15.3527393 C52.7181192,15.3527393 53.7915844,14.6640393 54.3515476,13.6459122 C54.54333,13.2647012 54.93452,13.0025944 55.3861486,13.0025944 C56.025134,13.0025944 56.5431339,13.5272779 56.5431339,14.1745077 C56.5431339,14.3471023 56.5062984,14.5109825 56.4401559,14.6585226 L56.3892968,14.7576466 C55.4382931,16.5094144 53.5989419,17.6965659 51.4858486,17.6965659 C48.3974193,17.6965659 45.8937527,15.1605959 45.8937527,12.0323184 C45.8937527,8.90404086 48.3974193,6.36807088 51.4858486,6.36807088 Z M51.4858486,8.71189742 C49.6753901,8.71189742 48.2077234,10.1985005 48.2077234,12.0323184 C48.2077234,12.1356704 48.2123852,12.2379195 48.2215074,12.3388618 C48.2916408,12.2942377 48.3662509,12.2568832 48.4460958,12.227506 L54.1675549,10.122157 C53.5742531,9.26914703 52.5942982,8.71189742 51.4858486,8.71189742 Z" id="形状结合" fill="#5971F0"></path>
                        </g>
                    </g>
                </g>
            </g>
        </g>
    </g>
</svg>